<svg xmlns="http://www.w3.org/2000/svg" width="156.28" height="72.53" viewBox="0 0 156.28 72.53">
  <g id="Layer_2" data-name="Layer 2">
    <g id="Layer_1-2" data-name="Layer 1">
      <path d="M155.2,39.81c.09-.13.17-.27.25-.4a4.93,4.93,0,0,0,.23-.46,1.92,1.92,0,0,0,.12-.25s0-.09,0-.13.11-.34.17-.5.08-.27.11-.41.06-.33.08-.5l.06-.42a4.34,4.34,0,0,0,0-.51c0-.14,0-.28,0-.41s0-.35-.07-.53,0-.26-.07-.39a4.84,4.84,0,0,0-.14-.51c0-.13-.08-.26-.12-.39a1.27,1.27,0,0,1-.06-.18c-.05-.11-.11-.2-.16-.3s-.12-.26-.19-.38a4.08,4.08,0,0,0-.28-.44,2.62,2.62,0,0,0-.24-.34c-.11-.15-.23-.28-.35-.42l-.17-.19L124.54,1.87a6.38,6.38,0,0,0-9,9l19,19H6.39a6.38,6.38,0,0,0-5.3,2.82,6.38,6.38,0,0,0,.78,8.08,6.38,6.38,0,0,0,4.52,1.87H134.5l-19,19a6.39,6.39,0,0,0,9,9l29.88-29.89.18-.2.34-.39Z" style="fill: #333"/>
    </g>
  </g>
</svg>
