<svg xmlns="http://www.w3.org/2000/svg" width="156.28" height="72.53" viewBox="0 0 156.28 72.53">
  <g id="Layer_2" data-name="Layer 2">
    <g id="Layer_1-2" data-name="Layer 1">
      <path d="M1.08,32.72c-.09.14-.18.27-.26.41l-.23.45c0,.09-.08.16-.12.25a1.21,1.21,0,0,1,0,.14c-.06.16-.11.33-.16.5s-.08.27-.11.41-.06.33-.09.49,0,.28,0,.42,0,.34,0,.52,0,.27,0,.41,0,.35.06.52,0,.26.07.39.09.34.14.51a3.56,3.56,0,0,0,.13.39l.06.18a2.8,2.8,0,0,0,.15.3,2.75,2.75,0,0,0,.2.38c.08.15.18.3.27.45l.24.33c.11.15.24.28.36.42l.17.19L31.74,70.66a6.38,6.38,0,1,0,9-9l-19-19H149.89a6.39,6.39,0,1,0,0-12.77H21.78l19-19a6.38,6.38,0,1,0-9-9L1.85,31.76c-.06.06-.11.13-.17.2s-.23.26-.34.4Z" style="fill: #333"/>
    </g>
  </g>
</svg>
