<svg xmlns="http://www.w3.org/2000/svg" width="28" height="15" viewBox="0 0 47.22 26.94" fill="#FFF">
      <path d="M23.1,26.82h2.83a2.38,2.38,0,0,0,1.29-.56A2,2,0,0,0,27.6,25s-.05-3.79,1.7-4.34,4,3.66,6.32,5.28a4.53,4.53,0,0,0,3.14,1l6.31-.1s3.29-.2,1.73-2.79c-.12-.22-.91-1.93-4.69-5.43-4-3.66-3.42-3.07,1.34-9.43,2.9-3.86,4.07-6.21,3.7-7.23s-2.48-.71-2.48-.71l-7.1.05a1.56,1.56,0,0,0-.92.16A2,2,0,0,0,36,2.2,41.33,41.33,0,0,1,33.4,7.73c-3.16,5.38-4.42,5.66-4.94,5.33-1.2-.79-.9-3.13-.9-4.8,0-5.2.79-7.37-1.54-7.93A12.1,12.1,0,0,0,22.71,0C20.18,0,18,0,16.82.6,16,1,15.39,1.88,15.76,1.93A3.24,3.24,0,0,1,17.86,3a6.78,6.78,0,0,1,.7,3.21s.42,6.13-1,6.89c-.95.52-2.26-.55-5.08-5.42A45.27,45.27,0,0,1,10,2.42a2.17,2.17,0,0,0-.59-.79,2.79,2.79,0,0,0-1.09-.44l-6.75,0A2.34,2.34,0,0,0,.15,1.7c-.33.39,0,1.21,0,1.21S5.41,15.26,11.4,21.48a16.13,16.13,0,0,0,11.7,5.34Z"/>
</svg>
