<svg xmlns="http://www.w3.org/2000/svg" viewBox="0 0 133.61 159.17">
    <defs>
        <style>.cls-1{fill:#444;stroke:#000;stroke-miterlimit:10;stroke-width:12px;}</style>
    </defs>
    <path class="cls-1"
          d="M67.81,26.05v6h0c.58,0,1.17,0,1.75,0A35.55,35.55,0,0,1,94,43.46a36.61,36.61,0,0,1,9.93,25.06V90.67a18.61,18.61,0,0,0,4.83,12.5l10,14h-102l10.14-14a18.61,18.61,0,0,0,4.83-12.5V67.35c0-19.46,16.2-35.3,36.12-35.3v-6Zm0,0c-23.25,0-42.11,18.49-42.11,41.3V90.67a12.62,12.62,0,0,1-3.28,8.48l-14.1,15.6a5.05,5.05,0,0,0,3.86,8.42H123.44a5.05,5.05,0,0,0,3.86-8.42l-14.1-15.6a12.62,12.62,0,0,1-3.28-8.48V68.52c0-22.24-17.43-41.38-40.08-42.42-.68,0-1.36-.05-2-.05Z"
          transform="translate(-1 -1.02)"/>
    <path class="cls-1" d="M81.35,140.21H54.26c0,7.34,6.06,14,13.55,14s13.54-6.65,13.54-14Z"
          transform="translate(-1 -1.02)"/>
    <path class="cls-1"
          d="M75.46,29.75a3,3,0,0,1-3-3V17.68a4.66,4.66,0,1,0-9.31,0v9.06a3,3,0,1,1-6,0V17.68a10.66,10.66,0,1,1,21.31,0v9.07A3,3,0,0,1,75.46,29.75Z"
          transform="translate(-1 -1.02)"/>
</svg>