<svg xmlns="http://www.w3.org/2000/svg" width="197" height="32" viewBox="0 0 197 31.83">
      <rect x="78.37" width="10.65" height="31.78" rx="4.92" style="fill: #9d2083"/>
      <path d="M54.43,15.4V1.45A1.37,1.37,0,0,0,52.93.08,15.9,15.9,0,1,0,70.26,17.55,1.35,1.35,0,0,0,68.9,16H55.07A.64.64,0,0,1,54.43,15.4Z" style="fill: #fccc00"/>
      <path d="M155.21,10.61H150V5.37a5.33,5.33,0,1,0-10.65,0v5.24h-5.24a5.33,5.33,0,1,0,0,10.65h5.24V26.5a5.33,5.33,0,1,0,10.65,0V21.26h5.24a5.33,5.33,0,1,0,0-10.65Z" style="fill: #41ab34"/>
      <path d="M124.81,8.19V1.44A1.4,1.4,0,0,0,123.42,0H99.53a1.4,1.4,0,0,0-1.39,1.4v29a1.4,1.4,0,0,0,1.39,1.4h7.91a1.4,1.4,0,0,0,1.4-1.4v-6A1.18,1.18,0,0,1,110,23.25h5.11a1.4,1.4,0,0,0,1.39-1.4V17a1.39,1.39,0,0,0-1.39-1.39H110a1.19,1.19,0,0,1-1.19-1.19V10.77A1.18,1.18,0,0,1,110,9.59h13.39A1.4,1.4,0,0,0,124.81,8.19Z" style="fill: #3eb59e"/>
      <path d="M196.74,29.13,181.64.88a1.77,1.77,0,0,0-3,0l-15.1,28.25a1.78,1.78,0,0,0,1.52,2.7h30.18A1.78,1.78,0,0,0,196.74,29.13Z" style="fill: #e0034f"/>
      <path d="M33.48,29.13,18.38.88a1.77,1.77,0,0,0-3,0L.26,29.13a1.78,1.78,0,0,0,1.52,2.7H32A1.78,1.78,0,0,0,33.48,29.13Z" style="fill: #009fe3"/>
</svg>
