<svg xmlns="http://www.w3.org/2000/svg" width="78" height="56.73" viewBox="0 0 78 56.73">
  <g id="Layer_2" data-name="Layer 2">
    <g id="Layer_1-2" data-name="Layer 1">
      <path d="M4.09,42.91a1.92,1.92,0,0,1,.55.33,1.92,1.92,0,0,1,.38.48,1.47,1.47,0,0,1,.17.74,1.78,1.78,0,0,1-.14.7,1.69,1.69,0,0,1-.42.57,2,2,0,0,1-.66.39,2.65,2.65,0,0,1-.87.14H0V40H2.9a2.55,2.55,0,0,1,.86.13,1.71,1.71,0,0,1,.64.35,1.5,1.5,0,0,1,.54,1.16,1.24,1.24,0,0,1-.13.6,1.66,1.66,0,0,1-.72.7Zm-2.34-.5h.8A.6.6,0,0,0,3,42.25a.51.51,0,0,0,.17-.39A.54.54,0,0,0,3,41.47a.65.65,0,0,0-.43-.16h-.8v1.1Zm1,2.5a.7.7,0,0,0,.5-.2.61.61,0,0,0,0-.9.7.7,0,0,0-.5-.2h-1v1.3Zm7.44,1.35c-.09-.17-.2-.37-.31-.59L9.48,45c-.13-.25-.25-.5-.39-.75H8.44v2H6.7V40H9.44a2.69,2.69,0,0,1,1,.16,2.25,2.25,0,0,1,.74.46,2,2,0,0,1,.48.68,2.14,2.14,0,0,1,.17.84,1.67,1.67,0,0,1-.18.81,2.47,2.47,0,0,1-.37.53,2.39,2.39,0,0,1-.55.41l1.4,2.4Zm-.8-3.6a.68.68,0,0,0,.48-.16.51.51,0,0,0,.17-.39.54.54,0,0,0-.17-.39.73.73,0,0,0-.48-.16h-.9v1.1Zm6.6-.75-.55,1.8h1.1l-.55-1.8ZM15,45.11l-.35,1.15H12.79L14.94,40h2l2.14,6.29H17.24l-.35-1.15ZM25.93,40v6.29h-1.6L22,43v3.25H20.29V40h1.59l2.3,3.24V40ZM30,44.66a1.31,1.31,0,0,0,.56-.12,1.23,1.23,0,0,0,.46-.32,1.47,1.47,0,0,0,.31-.48,1.69,1.69,0,0,0,0-1.25,1.52,1.52,0,0,0-.31-.49,1.23,1.23,0,0,0-.46-.32,1.31,1.31,0,0,0-.56-.12h-.55v3.1ZM27.73,40H30a3.39,3.39,0,0,1,1.28.24,3.19,3.19,0,0,1,1,.65,3.11,3.11,0,0,1,.66,1,3.27,3.27,0,0,1,.24,1.25A3.2,3.2,0,0,1,33,44.36a3,3,0,0,1-.66,1,3.05,3.05,0,0,1-1,.66,3.39,3.39,0,0,1-1.28.24h-2.3V40Zm8.79,6.29H34.78V40h1.74v6.29ZM44,40v6.29h-1.6L40.07,43v3.25H38.33V40h1.59l2.3,3.24V40Zm4.7,2.89h3.14v3.4H50.66l-.25-.6a2.13,2.13,0,0,1-.47.35,2.69,2.69,0,0,1-.56.24,2.53,2.53,0,0,1-.76.11,3.08,3.08,0,0,1-1.21-.25,3.22,3.22,0,0,1-1-.69,3.14,3.14,0,0,1-.66-1,3.4,3.4,0,0,1,0-2.56,3,3,0,0,1,.67-1,3.09,3.09,0,0,1,1-.68,3,3,0,0,1,1.26-.25,2.9,2.9,0,0,1,.81.1,3.11,3.11,0,0,1,.67.25,2.18,2.18,0,0,1,.52.36,3.68,3.68,0,0,1,.39.41,3.27,3.27,0,0,1,.6,1.12l-1.8.15a1.18,1.18,0,0,0-.26-.35,1.69,1.69,0,0,0-.37-.24,1.33,1.33,0,0,0-.56-.11,1.39,1.39,0,0,0-.57.12,1.32,1.32,0,0,0-.46.32,1.52,1.52,0,0,0-.31.49,1.83,1.83,0,0,0,0,1.25,1.35,1.35,0,0,0,.32.48,1.23,1.23,0,0,0,.46.32,1.31,1.31,0,0,0,.56.12,1.34,1.34,0,0,0,.56-.1,1.39,1.39,0,0,0,.37-.2.91.91,0,0,0,.26-.3H48.67v-1.2Z" style="fill: #44b5a0"/>
      <path d="M6.58.09A6.49,6.49,0,0,1,9,.51,5.41,5.41,0,0,1,10.8,1.68,5,5,0,0,1,12,3.44a5.79,5.79,0,0,1,.42,2.23A5.8,5.8,0,0,1,12,7.91a5,5,0,0,1-1.2,1.76A5.41,5.41,0,0,1,9,10.84a6.49,6.49,0,0,1-2.37.42H4.35v4.47H0V.09Zm-.37,7.2A1.67,1.67,0,0,0,7.45,6.8,1.52,1.52,0,0,0,8,5.67a1.55,1.55,0,0,0-.5-1.13,1.72,1.72,0,0,0-1.24-.48H4.35V7.29ZM15.56.09H27.24V3.94H19.91v2h6.71V9.65H19.91v2.23h7.58v3.85H15.56V.09Zm29.11,0V15.73h-4L35,7.66v8.07H30.64V.09h4l5.72,8.07V.09Z" style="fill: #009ee2"/>
      <path d="M59.58,11.89a1.3,1.3,0,0,0,1.06.53l.53-.11v3a3.43,3.43,0,0,1-1.7.42A3,3,0,0,1,58,15.34a3.42,3.42,0,0,1-1-.74l-.32-.37a5.64,5.64,0,0,1-.42.41,6.34,6.34,0,0,1-3.4,1.07,5.09,5.09,0,0,1-3.52-1.21,3.83,3.83,0,0,1-1.06-4.41A4.1,4.1,0,0,1,49,8.89,6.15,6.15,0,0,1,49.86,8a5.56,5.56,0,0,1,.71-.55l.31-.16-.19-.19a5.7,5.7,0,0,1-.44-.52,6.61,6.61,0,0,1-.55-.79,4.33,4.33,0,0,1-.44-.94,3.23,3.23,0,0,1-.19-1.07,3.58,3.58,0,0,1,1.22-2.69,4.33,4.33,0,0,1,3-1.13,4.51,4.51,0,0,1,3.11,1.11,3.41,3.41,0,0,1,1.24,2.61,3.21,3.21,0,0,1-.61,1.83,5.19,5.19,0,0,1-1.22,1.33l-.61.45,1.69,2a2.38,2.38,0,0,0,.54-1.6h3.39a6.94,6.94,0,0,1-.32,2.12,6.35,6.35,0,0,1-.63,1.53l-.32.49Zm-6.37.85a2.14,2.14,0,0,0,.89-.2,2.56,2.56,0,0,0,.62-.35L54.9,12l-2-2.44-.31.23a3.18,3.18,0,0,0-.52.62,1.63,1.63,0,0,0-.34.95,1.32,1.32,0,0,0,.39,1,1.53,1.53,0,0,0,1.1.38ZM54.38,4a1.08,1.08,0,0,0-.29-.77A1,1,0,0,0,53.32,3a1,1,0,0,0-.78.29,1.08,1.08,0,0,0-.29.77,1.47,1.47,0,0,0,.27.8A3.16,3.16,0,0,0,53,5.5l.28.23A2.29,2.29,0,0,0,54.38,4Z" style="fill: #ffcd00"/>
      <path d="M10.18,27.35a4.89,4.89,0,0,1,1.37.82,5.06,5.06,0,0,1,.93,1.18,3.57,3.57,0,0,1,.44,1.85,4.16,4.16,0,0,1-1.4,3.17,4.83,4.83,0,0,1-1.63,1,6.53,6.53,0,0,1-2.19.35H0V20H7.2a6.49,6.49,0,0,1,2.16.33,4.69,4.69,0,0,1,1.59.88,3.91,3.91,0,0,1,1,1.3,3.76,3.76,0,0,1,.34,1.59A3.08,3.08,0,0,1,12,25.6a4.78,4.78,0,0,1-.73,1,4.22,4.22,0,0,1-1.05.74ZM4.35,26.11h2a1.48,1.48,0,0,0,1.07-.4,1.28,1.28,0,0,0,.42-1,1.3,1.3,0,0,0-.42-1,1.52,1.52,0,0,0-1.07-.39h-2v2.73Zm2.36,6.21A1.69,1.69,0,0,0,8,31.83a1.52,1.52,0,0,0,.49-1.13A1.54,1.54,0,0,0,8,29.57a1.72,1.72,0,0,0-1.24-.48H4.35v3.23Zm17.92,3.35c-.23-.41-.49-.9-.78-1.46s-.58-1.11-.86-1.64-.64-1.24-1-1.87H20.41v5H16.06V20h6.83a6.7,6.7,0,0,1,2.37.41,5.52,5.52,0,0,1,1.85,1.15,5.1,5.1,0,0,1,1.2,1.7,5.15,5.15,0,0,1,.42,2.08,4.17,4.17,0,0,1-.44,2,6.2,6.2,0,0,1-.93,1.33,5.76,5.76,0,0,1-1.36,1l3.47,6Zm-2-8.94a1.66,1.66,0,0,0,1.18-.4,1.26,1.26,0,0,0,.44-1,1.28,1.28,0,0,0-.44-1A1.7,1.7,0,0,0,22.64,24H20.41v2.73Zm16.41-1.86-1.37,4.47h2.73l-1.36-4.47Zm-2.36,7.94-.87,2.86h-4.6L36.56,20h5l5.34,15.65H42.28l-.87-2.86ZM53.1,35.67H48.76V20H53.1V35.67ZM70.16,20V35.67h-4L60.48,27.6v8.07H56.13V20h4l5.72,8.08V20Z" style="fill: #941b80"/>
      <path d="M78,22.22a2.09,2.09,0,0,1-.17.83,2,2,0,0,1-.46.68,2.25,2.25,0,0,1-.69.46,2.18,2.18,0,0,1-.85.16,2.22,2.22,0,0,1-.85-.16,2.52,2.52,0,0,1-.69-.46,2.15,2.15,0,0,1-.46-.68,2.11,2.11,0,0,1,0-1.66A2.14,2.14,0,0,1,75,20.25a2.22,2.22,0,0,1,.85-.17,2.19,2.19,0,0,1,.85.17,1.94,1.94,0,0,1,.69.46,2,2,0,0,1,.46.68,2.09,2.09,0,0,1,.17.83Zm-1.22-.36a.59.59,0,0,1,0,.28.64.64,0,0,1-.13.18.46.46,0,0,1-.18.13l.57.79a1.5,1.5,0,0,0,.28-.47,1.42,1.42,0,0,0,.11-.55,1.32,1.32,0,0,0-.13-.6,1.54,1.54,0,0,0-.82-.82,1.32,1.32,0,0,0-.6-.13,1.38,1.38,0,0,0-.6.13,1.54,1.54,0,0,0-.82.82,1.46,1.46,0,0,0-.12.6,1.53,1.53,0,0,0,.12.6,1.54,1.54,0,0,0,.82.82,1.59,1.59,0,0,0,1.21,0,1.49,1.49,0,0,0,.49-.34h-.64l-.46-.69h-.16v.69H75V21.13h1a.81.81,0,0,1,.31.06.89.89,0,0,1,.25.16.76.76,0,0,1,.17.23.87.87,0,0,1,0,.28ZM75.9,22c.15,0,.23-.05.23-.16s-.08-.17-.23-.17h-.23V22Z" style="fill: #941b80"/>
      <path d="M3.15,52.28l-.55,1.8H3.69l-.54-1.8Zm-.95,3.2-.35,1.15H0l2.15-6.3h2l2.15,6.3H4.44l-.35-1.15Zm8-2.25h3.15v3.4H12.19l-.25-.6a2.4,2.4,0,0,1-.47.35,2.57,2.57,0,0,1-.57.24,2.49,2.49,0,0,1-.76.11,3,3,0,0,1-1.2-.25,3.12,3.12,0,0,1-1.65-1.72,3.53,3.53,0,0,1,0-2.56,3,3,0,0,1,.68-1,3.36,3.36,0,0,1,1-.69,3.29,3.29,0,0,1,1.26-.25,3.47,3.47,0,0,1,.82.1,3.36,3.36,0,0,1,.66.26,2.18,2.18,0,0,1,.52.36,5.09,5.09,0,0,1,.4.41,3.66,3.66,0,0,1,.6,1.12l-1.8.15a1.23,1.23,0,0,0-.26-.35,2,2,0,0,0-.37-.24,1.35,1.35,0,0,0-.57-.11,1.31,1.31,0,0,0-.56.12,1.23,1.23,0,0,0-.46.32,1.37,1.37,0,0,0-.31.49,1.66,1.66,0,0,0,0,1.24,1.37,1.37,0,0,0,.31.49,1.44,1.44,0,0,0,1,.44,1.35,1.35,0,0,0,.57-.1,1.58,1.58,0,0,0,.37-.2,1,1,0,0,0,.26-.3H10.19v-1.2ZM15,50.33h4.69v1.55H16.79v.8h2.69v1.5H16.79v.9h3v1.55H15v-6.3Zm12,0v6.3h-1.6l-2.3-3.25v3.25H21.43v-6.3H23l2.3,3.25V50.33ZM31.82,55a1.09,1.09,0,0,0,.57-.13,1.22,1.22,0,0,0,.37-.27,1.15,1.15,0,0,0,.26-.4l1.8.15a2.69,2.69,0,0,1-.35.85,3.36,3.36,0,0,1-.66.75,3.71,3.71,0,0,1-.9.54,2.82,2.82,0,0,1-1.09.21,3.21,3.21,0,0,1-1.25-.25,3.28,3.28,0,0,1-1-.69,3.19,3.19,0,0,1-.68-1,3.53,3.53,0,0,1,0-2.56,3.19,3.19,0,0,1,.68-1,3.28,3.28,0,0,1,1-.69,3.21,3.21,0,0,1,1.25-.25,2.82,2.82,0,0,1,1.09.21,3.71,3.71,0,0,1,.9.54,3.36,3.36,0,0,1,.66.75,2.79,2.79,0,0,1,.35.85l-1.8.15a1.15,1.15,0,0,0-.26-.4,1.22,1.22,0,0,0-.37-.27,1.09,1.09,0,0,0-.57-.13,1.38,1.38,0,0,0-.56.12,1.23,1.23,0,0,0-.46.32,1.52,1.52,0,0,0-.31.49,1.8,1.8,0,0,0,0,1.24,1.52,1.52,0,0,0,.31.49,1.23,1.23,0,0,0,.46.32,1.38,1.38,0,0,0,.56.12Zm5.8-.7-2.15-4h1.9l1.13,2.3,1.12-2.3h1.9l-2.15,4v2.3H37.62v-2.3Z" style="fill: #39a935"/>
    </g>
  </g>
</svg>
